<?xml version="1.0" encoding="UTF-8" standalone="no"?>
<svg
   xmlns:dc="http://purl.org/dc/elements/1.1/"
   xmlns:cc="http://creativecommons.org/ns#"
   xmlns:rdf="http://www.w3.org/1999/02/22-rdf-syntax-ns#"
   xmlns:svg="http://www.w3.org/2000/svg"
   xmlns="http://www.w3.org/2000/svg"
   version="1.1"
   id="svg2"
   viewBox="0 0 423.01547 422.93432"
   height="119.36147mm"
   width="119.38436mm">
  <defs
     id="defs4" />
  <metadata
     id="metadata7">
    <rdf:RDF>
      <cc:Work
         rdf:about="">
        <dc:format>image/svg+xml</dc:format>
        <dc:type
           rdf:resource="http://purl.org/dc/dcmitype/StillImage" />
        <dc:title></dc:title>
      </cc:Work>
    </rdf:RDF>
  </metadata>
  <g
     transform="translate(-149.65632,-123.11379)"
     id="layer1">
    <path
       id="path4424"
       d="m 189.52859,509.45172 c -1.17475,-0.56883 -2.63725,-2.13454 -3.25,-3.47937 -1.58306,-3.47445 -1.58679,-339.21948 -0.004,-342.69376 0.61065,-1.34023 2.20682,-2.9364 3.54705,-3.54705 3.46682,-1.57959 339.21862,-1.57959 342.68542,0 1.3402,0.61065 2.9364,2.20682 3.547,3.54705 1.5796,3.46682 1.5796,339.21858 0,342.6854 -0.6106,1.34022 -2.2068,2.9364 -3.547,3.54705 -3.3151,1.51045 -339.85693,1.45225 -342.97866,-0.0593 z m 107.63593,-174.83043 0,-160.00002 -48,0 -48.00001,0 0,160.00002 0,160.00002 48.00001,0 48,0 0,-160.00002 z m 112.00002,0 0,-160.00002 -48.00001,0 -48.00001,0 0,160.00002 0,160.00002 48.00001,0 48.00001,0 0,-160.00002 z m 112.00002,0 0,-160.00002 -48,0 -48.00002,0 0,160.00002 0,160.00002 48.00002,0 48,0 0,-160.00002 z"
       style="fill:#eb3a00;fill-opacity:1" />
  </g>
</svg>
