<?xml version="1.0" encoding="UTF-8" standalone="no"?>
<svg
   xmlns:dc="http://purl.org/dc/elements/1.1/"
   xmlns:cc="http://creativecommons.org/ns#"
   xmlns:rdf="http://www.w3.org/1999/02/22-rdf-syntax-ns#"
   xmlns:svg="http://www.w3.org/2000/svg"
   xmlns="http://www.w3.org/2000/svg"
   width="119.38436mm"
   height="119.36147mm"
   viewBox="0 0 423.01547 422.93432"
   id="svg2"
   version="1.1">
  <defs
     id="defs4" />
  <metadata
     id="metadata7">
    <rdf:RDF>
      <cc:Work
         rdf:about="">
        <dc:format>image/svg+xml</dc:format>
        <dc:type
           rdf:resource="http://purl.org/dc/dcmitype/StillImage" />
        <dc:title></dc:title>
      </cc:Work>
    </rdf:RDF>
  </metadata>
  <g
     id="layer1"
     transform="translate(-149.65632,-123.11379)" />
  <g
     id="g2380"
     transform="matrix(0.45291157,0,0,0.45291157,27.820448,37.219128)">
    <g
       id="graph-35">
      <polygon
         id="polygon2362"
         points="826.364,729.166 20.82,729.166 20.82,0 0,0 0,750.002 826.364,750.002 "
         style="fill:#3bafda" />
    </g>
    <g
       id="Layer_1" />
  </g>
  <g
     id="g5499"
     transform="matrix(0.41988051,0,0,0.41988051,39.490177,34.570052)">
    <g
       id="graph-10">
      <g
         id="g5113">
        <path
           id="path5101"
           d="m 91.821405,148.812 c -26.09588,0 -47.312405,21.21418 -47.312405,47.3124 0,26.17791 21.214181,47.35225 47.312405,47.35225 26.138065,0 47.392085,-21.17434 47.392085,-47.35225 -0.002,-26.09822 -21.25402,-47.3124 -47.392085,-47.3124 z"
           style="fill:#3bafda;stroke-width:2.3435905" />
        <path
           id="path5105"
           d="m 320.60692,261.4789 c -41.5687,0 -75.29475,33.79324 -75.29475,75.42167 0,41.63216 33.72605,75.35821 75.29475,75.35821 41.63216,0 75.42167,-33.72605 75.42167,-75.35821 0,-41.62843 -33.78951,-75.42167 -75.42167,-75.42167 z"
           style="fill:#3bafda;stroke-width:3.73282194" />
        <path
           id="path5109"
           d="m 529.321,100.888 c -11.117,0 -20.188,9.035 -20.188,20.188 0,11.187 9.07,20.204 20.188,20.204 11.172,0 20.223,-9.018 20.223,-20.204 -10e-4,-11.153 -9.051,-20.188 -20.223,-20.188 z"
           style="fill:#3bafda" />
      </g>
      <g
         id="g5425">
        <path
           id="path5401"
           d="m 233.76002,316.32832 c 0,29.70044 -24.15488,53.85136 -53.92266,53.85136 -29.69648,0 -53.85136,-24.15488 -53.85136,-53.85136 0,-29.76778 24.15488,-53.85532 53.85136,-53.85532 29.76778,0.004 53.92266,24.0915 53.92266,53.85532 z"
           style="fill:#48cfad;stroke-width:3.96111512" />
        <path
           id="path5403"
           d="m 373.49533,492.30385 c 0,28.8182 -23.31222,52.13425 -52.12658,52.13425 -28.81435,0 -52.12657,-23.31605 -52.12657,-52.13425 0,-28.81052 23.31222,-52.18792 52.12657,-52.18792 28.8182,-0.004 52.12658,23.3774 52.12658,52.18792 z"
           style="fill:#48cfad;stroke-width:3.83424592" />
        <path
           id="path5405"
           d="m 488.48432,349.6595 c 0,19.56543 -15.91224,35.47506 -35.51943,35.47506 -19.56543,0 -35.47767,-15.90963 -35.47767,-35.47506 0,-19.6098 15.91224,-35.51682 35.47767,-35.51682 19.60719,0 35.51943,15.90702 35.51943,35.51682 z"
           style="fill:#48cfad;stroke-width:2.60942006" />
        <path
           id="path5407"
           d="m 526.8906,475.9717 c 0,19.12044 -15.46985,34.631 -34.5852,34.631 -19.11789,0 -34.67424,-15.5131 -34.67424,-34.631 0,-19.0721 15.55635,-34.5852 34.67424,-34.5852 19.11535,0 34.5852,15.51055 34.5852,34.5852 z"
           style="fill:#48cfad;stroke-width:2.54396486" />
        <path
           id="path5409"
           d="m 726.1757,153.03964 c 0,17.19653 -13.91053,31.14596 -31.10935,31.14596 -17.19652,0 -31.10935,-13.95172 -31.10935,-31.14596 0,-17.19881 13.91283,-31.11164 31.10935,-31.11164 17.19653,0.002 31.10935,13.91511 31.10935,31.11164 z"
           style="fill:#48cfad;stroke-width:2.2882936" />
        <path
           id="path5411"
           d="m 453.86287,229.59766 c 0,23.52265 -19.09108,42.45759 -42.45759,42.45759 -23.47269,0 -42.56377,-18.93181 -42.56377,-42.45759 0,-23.41335 19.09108,-42.4576 42.56377,-42.4576 23.36651,0 42.45759,19.04113 42.45759,42.4576 z"
           style="fill:#48cfad;stroke-width:3.12302971" />
        <path
           id="path5413"
           d="m 824.127,279.07499 c 0,25.9099 -21.08304,46.87228 -46.9895,46.87228 -25.79612,0 -46.75504,-20.96238 -46.75504,-46.87228 0,-25.84784 20.95892,-46.87226 46.75504,-46.87226 25.90646,0 46.9895,21.02442 46.9895,46.87226 z"
           style="fill:#fc6e51;stroke-width:3.44775772" />
        <path
           id="path5415"
           d="m 720.42453,426.72522 c 0,14.74272 -11.95462,26.73077 -26.73077,26.73077 -14.77811,0 -26.73076,-11.98805 -26.73076,-26.73077 0,-14.77614 11.95265,-26.76222 26.73076,-26.76222 14.77615,0 26.73077,11.98608 26.73077,26.76222 z"
           style="fill:#fc6e51;stroke-width:1.96622026" />
        <path
           id="path5417"
           d="m 582.93653,362.57156 c 0,23.95243 -19.38188,43.38849 -43.33112,43.38849 -23.95244,0 -43.44268,-19.43606 -43.44268,-43.38849 0,-23.84088 19.49024,-43.27694 43.44268,-43.27694 23.94924,0 43.33112,19.43606 43.33112,43.27694 z"
           style="fill:#fc6e51;stroke-width:3.18728352" />
        <path
           id="path5419"
           d="m 443.176,691.56161 c 0,13.29378 -10.78147,24.10361 -24.10362,24.10361 -13.29377,0 -24.10538,-10.80983 -24.10538,-24.10361 0,-13.292 10.81161,-24.10361 24.10538,-24.10361 13.32215,0 24.10362,10.81161 24.10362,24.10361 z"
           style="fill:#fc6e51;stroke-width:1.77297616" />
        <path
           id="path5421"
           d="m 105.69639,377.48124 c 0,16.66925 -13.552378,30.22385 -30.223848,30.22385 -16.70704,0 -30.25942,-13.5546 -30.25942,-30.22385 0,-16.70704 13.55238,-30.22385 30.25942,-30.22385 16.67147,0 30.223848,13.51681 30.223848,30.22385 z"
           style="fill:#fc6e51;stroke-width:2.22315907" />
        <path
           id="path5423"
           d="m 265.51629,608.06973 c 0,38.89062 -31.53575,70.51973 -70.51455,70.51973 -38.97881,0 -70.51974,-31.62911 -70.51974,-70.51973 0,-38.97362 31.54093,-70.60273 70.51974,-70.60273 38.9788,0 70.51455,31.62911 70.51455,70.60273 z"
           style="fill:#fc6e51;stroke-width:5.18680048" />
      </g>
      <path
         id="path5429"
         d="m 182.0284,429.5552 c 0,15.37422 -12.43946,27.8502 -27.8502,27.8502 -15.37637,0 -27.8502,-12.47598 -27.8502,-27.8502 0,-15.41075 12.47598,-27.8502 27.8502,-27.8502 15.41289,-0.002 27.8502,12.43731 27.8502,27.8502 z"
         style="fill:#ffce54;stroke-width:2.14843774" />
      <path
         id="path5431"
         d="m 381.58651,635.13688 c 0,20.63389 -16.78112,37.46703 -37.51616,37.46703 -20.68592,0 -37.46703,-16.83314 -37.46703,-37.46703 0,-20.73216 16.784,-37.51616 37.46703,-37.51616 20.73504,0 37.51616,16.784 37.51616,37.51616 z"
         style="fill:#ffce54;stroke-width:2.89030504" />
      <path
         id="path5433"
         d="m 490.28354,581.65603 c 0,25.57471 -20.70793,46.27551 -46.2149,46.27551 -25.57472,0 -46.28264,-20.70436 -46.28264,-46.27551 0,-25.51411 20.70792,-46.22203 46.28264,-46.22203 25.50697,0.004 46.2149,20.70792 46.2149,46.22203 z"
         style="fill:#ffce54;stroke-width:3.56541419" />
      <path
         id="path5435"
         d="m 270.26455,214.79128 c 0,19.66997 -15.99993,35.71674 -35.76358,35.71674 -19.76365,0 -35.76358,-16.04677 -35.76358,-35.71674 0,-19.76364 16.00269,-35.76358 35.76358,-35.76358 19.7664,0 35.76358,15.99994 35.76358,35.76358 z"
         style="fill:#ffce54;stroke-width:2.75528336" />
      <path
         id="path5437"
         d="m 647.57095,221.47703 c 0,16.32939 -13.25109,29.58048 -29.61699,29.58048 -16.36819,0 -29.61928,-13.25337 -29.61928,-29.58048 0,-16.37047 13.25337,-29.61928 29.61928,-29.61928 16.36818,0 29.61699,13.24881 29.61699,29.61928 z"
         style="fill:#ffce54;stroke-width:2.28191638" />
    </g>
  </g>
</svg>
