<?xml version="1.0" encoding="UTF-8" standalone="no"?>
<svg
   xmlns:dc="http://purl.org/dc/elements/1.1/"
   xmlns:cc="http://creativecommons.org/ns#"
   xmlns:rdf="http://www.w3.org/1999/02/22-rdf-syntax-ns#"
   xmlns:svg="http://www.w3.org/2000/svg"
   xmlns="http://www.w3.org/2000/svg"
   version="1.1"
   id="svg2"
   viewBox="0 0 423.01547 422.93432"
   height="119.36147mm"
   width="119.38436mm">
  <defs
     id="defs4" />
  <metadata
     id="metadata7">
    <rdf:RDF>
      <cc:Work
         rdf:about="">
        <dc:format>image/svg+xml</dc:format>
        <dc:type
           rdf:resource="http://purl.org/dc/dcmitype/StillImage" />
        <dc:title></dc:title>
      </cc:Work>
    </rdf:RDF>
  </metadata>
  <g
     transform="translate(-149.65632,-123.11379)"
     id="layer1" />
  <g
     transform="matrix(0.43136059,0,0,0.43136059,13.571645,63.678326)"
     id="g2558">
    <g
       id="graph-6">
	<path
   style="fill:#3bafda"
   d="m 354.36,467.699 c 6.815,-4.852 15.183,-7.822 24.149,-7.822 17.644,0 32.639,10.793 38.907,26.046 h 123.902 c 6.968,-13.288 20.837,-22.459 36.892,-22.459 16.191,0 29.924,9.171 37.027,22.459 H 830.71 c 7.515,-11.222 20.393,-18.77 35.047,-18.77 23.159,0 42.016,18.854 42.016,42.049 0,23.262 -18.856,42.032 -42.016,42.032 -20.052,0 -36.722,-14.006 -40.957,-32.794 H 617.972 c -5.432,16.808 -21.077,29.035 -39.762,29.035 -18.685,0 -34.227,-12.227 -39.692,-29.035 H 417.246 c -6.456,15.014 -21.383,25.535 -38.736,25.535 -23.142,0 -41.929,-18.789 -41.929,-42.05 0,-1.98 0.291,-3.859 0.53,-5.841 L 141.108,354.531 c -6.166,3.587 -13.39,5.91 -21.195,5.91 -23.143,0 -42.049,-18.855 -42.049,-42.032 0,-23.262 18.907,-42.032 42.049,-42.032 23.279,0 42.032,18.77 42.032,42.032 0,3.228 -0.427,6.371 -1.145,9.428 z M 366.316,226.25 c 6.918,-4.852 15.167,-7.822 24.235,-7.822 17.541,0 32.639,10.776 38.923,26.062 H 553.24 c 7.105,-13.305 20.905,-22.477 36.994,-22.477 8.743,0 16.875,2.698 23.568,7.293 l 199.589,-127.754 -0.103,-0.972 c 0,-23.264 18.787,-42.05 41.946,-42.05 23.297,0 42.051,18.786 42.051,42.05 0,23.176 -18.754,42.049 -42.051,42.049 -10.69,0 -20.289,-4.151 -27.771,-10.795 L 631.566,257.232 c 0.374,2.254 0.717,4.491 0.717,6.849 0,23.245 -18.787,42.015 -42.049,42.015 -18.651,0 -34.297,-12.314 -39.795,-29.086 H 429.184 c -6.353,14.979 -21.263,25.5 -38.633,25.5 -23.159,0 -42.032,-18.855 -42.032,-42.049 0,-1.965 0.359,-3.844 0.649,-5.757 L 130.058,96.362 c -4.372,1.605 -9.154,2.596 -14.09,2.596 -23.245,0 -42.049,-18.839 -42.049,-42.032 0,-23.193 18.804,-42.032 42.049,-42.032 23.16,0 42.032,18.839 42.032,42.032 0,5.756 -1.144,11.323 -3.296,16.345 z M 909.48,669.27 H 33.15 0 V 634.683 5.363 h 33.15 v 629.319 h 876.33 z"
   id="path2519" />

	<path
   style="fill:#ffce54"
   d="m 791.769,99.812 c 0,33.083 26.815,59.897 59.881,59.897 33.03,0 59.879,-26.814 59.879,-59.897 0,-33.082 -26.849,-59.863 -59.879,-59.863 -33.066,-10e-4 -59.881,26.781 -59.881,59.863 z"
   id="path2521" />

	<path
   style="fill:#ffce54"
   d="m 525.606,266.147 c 0,33.082 26.815,59.881 59.879,59.881 33.065,0 59.914,-26.799 59.914,-59.881 0,-33.065 -26.849,-59.897 -59.914,-59.897 -33.064,0 -59.879,26.831 -59.879,59.897 z"
   id="path2523" />

	<path
   style="fill:#ffce54"
   d="m 325.992,246.182 c 0,33.082 26.832,59.896 59.897,59.896 33.065,0 59.897,-26.814 59.897,-59.896 0,-33.066 -26.832,-59.881 -59.897,-59.881 -33.065,0 -59.897,26.815 -59.897,59.881 z"
   id="path2525" />

	<path
   style="fill:#ffce54"
   d="m 53.202,59.881 c 0,33.082 26.815,59.896 59.862,59.896 33.1,0 59.897,-26.814 59.897,-59.896 C 172.961,26.815 146.164,0 113.064,0 80.017,0 53.202,26.815 53.202,59.881 Z"
   id="path2527" />

	<path
   style="fill:#48cfad"
   d="m 66.506,326.027 c 0,33.065 26.832,59.878 59.897,59.878 33.066,0 59.862,-26.812 59.862,-59.878 0,-33.066 -26.796,-59.881 -59.862,-59.881 -33.065,10e-4 -59.897,26.815 -59.897,59.881 z"
   id="path2529" />

	<path
   style="fill:#fc6e51"
   d="m 319.331,505.684 c 0,33.066 26.815,59.88 59.897,59.88 33.065,0 59.896,-26.813 59.896,-59.88 0,-33.065 -26.832,-59.88 -59.896,-59.88 -33.082,0 -59.897,26.814 -59.897,59.88 z"
   id="path2531" />

	<path
   style="fill:#fc6e51"
   d="m 525.606,499.04 c 0,33.064 26.815,59.879 59.879,59.879 33.065,0 59.914,-26.815 59.914,-59.879 0,-33.082 -26.849,-59.881 -59.914,-59.881 -33.064,0 -59.879,26.799 -59.879,59.881 z"
   id="path2533" />

	<path
   style="fill:#48cfad"
   d="m 798.43,499.04 c 0,33.064 26.78,59.879 59.848,59.879 33.098,0 59.912,-26.815 59.912,-59.879 0,-33.082 -26.814,-59.881 -59.912,-59.881 -33.068,0 -59.848,26.799 -59.848,59.881 z"
   id="path2535" />

</g>
    <g
       id="Layer_1">
</g>
  </g>
</svg>
