<?xml version="1.0" encoding="UTF-8" standalone="no"?>
<svg
   xmlns:dc="http://purl.org/dc/elements/1.1/"
   xmlns:cc="http://creativecommons.org/ns#"
   xmlns:rdf="http://www.w3.org/1999/02/22-rdf-syntax-ns#"
   xmlns:svg="http://www.w3.org/2000/svg"
   xmlns="http://www.w3.org/2000/svg"
   version="1.1"
   id="svg2"
   viewBox="0 0 423.01547 422.93432"
   height="119.36147mm"
   width="119.38436mm">
  <defs
     id="defs4" />
  <metadata
     id="metadata7">
    <rdf:RDF>
      <cc:Work
         rdf:about="">
        <dc:format>image/svg+xml</dc:format>
        <dc:type
           rdf:resource="http://purl.org/dc/dcmitype/StillImage" />
        <dc:title></dc:title>
      </cc:Work>
    </rdf:RDF>
  </metadata>
  <g
     transform="translate(-149.65632,-123.11379)"
     id="layer1" />
  <g
     transform="matrix(0.46831905,0,0,0.46831905,25.839107,22.18337)"
     id="g2602">
    <g
       id="graph-18">
	<path
   style="fill:#48cfad"
   d="m 0.426,418.528 c 0,1.178 0.035,2.254 0.035,3.399 h 385.24 V 33.237 C 172.944,33.237 0.426,205.754 0.426,418.528 Z"
   id="path2578" />

	<path
   style="fill:#fc6e51"
   d="M 418.4,0 V 388.639 L 731.838,161.144 C 661.951,63.586 547.587,0 418.4,0 Z"
   id="path2580" />

	<path
   style="fill:#ffce54"
   d="M 385.274,436.922 H 0 c 1.179,139.623 76.634,261.5 188.76,328.109 z"
   id="path2582" />

	<path
   style="fill:#3bafda"
   d="m 402.165,826.364 c 212.783,0 385.283,-172.518 385.283,-385.291 0,-83.637 -26.611,-160.989 -71.871,-224.166 L 402.165,444.42 205.685,772.53 c 57.524,34.211 124.713,53.834 196.48,53.834 z"
   id="path2584" />

</g>
    <g
       id="Layer_1">
</g>
  </g>
</svg>
