<?xml version="1.0" encoding="UTF-8" standalone="no"?>
<svg
   xmlns:dc="http://purl.org/dc/elements/1.1/"
   xmlns:cc="http://creativecommons.org/ns#"
   xmlns:rdf="http://www.w3.org/1999/02/22-rdf-syntax-ns#"
   xmlns:svg="http://www.w3.org/2000/svg"
   xmlns="http://www.w3.org/2000/svg"
   width="119.38436mm"
   height="119.36147mm"
   viewBox="0 0 423.01547 422.93432"
   id="svg2"
   version="1.1">
  <defs
     id="defs4" />
  <metadata
     id="metadata7">
    <rdf:RDF>
      <cc:Work
         rdf:about="">
        <dc:format>image/svg+xml</dc:format>
        <dc:type
           rdf:resource="http://purl.org/dc/dcmitype/StillImage" />
        <dc:title></dc:title>
      </cc:Work>
    </rdf:RDF>
  </metadata>
  <g
     id="layer1"
     transform="translate(-149.65632,-123.11379)" />
  <g
     id="g2380"
     transform="matrix(0.45291157,0,0,0.45291157,27.820448,37.219128)">
    <g
       id="graph-35">
      <polygon
         id="polygon2362"
         points="826.364,729.166 20.82,729.166 20.82,0 0,0 0,750.002 826.364,750.002 "
         style="fill:#3bafda" />
    </g>
    <g
       id="Layer_1" />
  </g>
  <g
     transform="matrix(0.90777099,0,0,0.90777099,25.652146,11.139644)"
     id="g2242">
    <g
       transform="translate(-149.65632,-123.11379)"
       id="layer1-9" />
    <g
       transform="matrix(0.42488032,0,0,0.42488032,38.930839,38.030197)"
       id="g5036">
      <g
         id="graph-36">
        <g
           transform="translate(-8.8115647,12.336191)"
           id="g4262">
          <g
             id="g3584">
            <path
               style="fill:#3bafda"
               d="m 21.024,692.685 c 11.596,0 20.991,9.428 20.991,21.024 0,11.581 -9.394,21.007 -20.991,21.007 C 9.427,734.716 0,725.29 0,713.709 0,702.112 9.427,692.685 21.024,692.685 Z"
               id="path3582" />
          </g>
          <g
             id="g3588" />
          <g
             id="g3592">
            <path
               style="fill:#3bafda"
               d="m 21.024,586.128 c 11.596,0 20.991,9.393 20.991,21.024 0,11.579 -9.394,20.973 -20.991,20.973 C 9.427,628.125 0,618.732 0,607.152 0,595.521 9.427,586.128 21.024,586.128 Z"
               id="path3590" />
          </g>
          <g
             id="g3600">
            <path
               style="fill:#3bafda"
               d="m 21.024,479.569 c 11.596,0 20.991,9.393 20.991,20.973 0,11.632 -9.394,21.024 -20.991,21.024 C 9.427,521.566 0,512.174 0,500.542 0,488.963 9.427,479.569 21.024,479.569 Z"
               id="path3598" />
          </g>
          <g
             id="g3604">
            <path
               style="fill:#3bafda"
               d="m 21.024,426.265 c 11.596,0 20.991,9.411 20.991,21.024 0,11.58 -9.394,20.974 -20.991,20.974 C 9.427,468.263 0,458.869 0,447.289 0,435.676 9.427,426.265 21.024,426.265 Z"
               id="path3602" />
          </g>
          <g
             id="g3612">
            <path
               style="fill:#3bafda"
               d="m 21.024,319.708 c 11.596,0 20.991,9.393 20.991,20.99 0,11.614 -9.394,21.007 -20.991,21.007 C 9.427,361.705 0,352.312 0,340.698 c 0,-11.597 9.427,-20.99 21.024,-20.99 z"
               id="path3610" />
          </g>
          <g
             id="g3616">
            <path
               style="fill:#3bafda"
               d="m 21.024,266.42 c 11.596,0 20.991,9.427 20.991,21.007 0,11.596 -9.394,21.024 -20.991,21.024 C 9.427,308.452 0,299.024 0,287.428 0,275.848 9.427,266.42 21.024,266.42 Z"
               id="path3614" />
          </g>
          <g
             id="g3620">
            <path
               style="fill:#3bafda"
               d="m 21.024,213.115 c 11.596,0 20.991,9.427 20.991,21.025 0,11.579 -9.394,21.007 -20.991,21.007 C 9.427,255.148 0,245.72 0,234.141 0,222.542 9.427,213.115 21.024,213.115 Z"
               id="path3618" />
          </g>
          <g
             id="g3628">
            <path
               style="fill:#3bafda"
               d="m 21.024,106.558 c 11.596,0 20.991,9.393 20.991,21.024 0,11.58 -9.394,21.007 -20.991,21.007 C 9.427,148.59 0,139.162 0,127.583 0,115.951 9.427,106.558 21.024,106.558 Z"
               id="path3626" />
          </g>
          <g
             id="g3632" />
          <g
             id="g3636" />
          <g
             id="g3640" />
          <g
             id="g3644">
            <path
               style="fill:#3bafda"
               d="m 73.304,692.685 c 11.596,0 21.008,9.428 21.008,21.024 0,11.581 -9.412,21.007 -21.008,21.007 -11.614,0 -21.008,-9.426 -21.008,-21.007 0,-11.597 9.394,-21.024 21.008,-21.024 z"
               id="path3642" />
          </g>
          <g
             id="g3648">
            <path
               style="fill:#3bafda"
               d="m 73.304,639.396 c 11.596,0 21.008,9.429 21.008,21.008 0,11.579 -9.412,21.024 -21.008,21.024 -11.614,0 -21.008,-9.445 -21.008,-21.024 0,-11.579 9.394,-21.008 21.008,-21.008 z"
               id="path3646" />
          </g>
          <g
             id="g3652">
            <path
               style="fill:#3bafda"
               d="m 73.304,586.128 c 11.596,0 21.008,9.393 21.008,21.024 0,11.579 -9.412,20.973 -21.008,20.973 -11.614,0 -21.008,-9.393 -21.008,-20.973 0,-11.631 9.394,-21.024 21.008,-21.024 z"
               id="path3650" />
          </g>
          <g
             id="g3656">
            <path
               style="fill:#3bafda"
               d="m 73.304,532.822 c 11.596,0 21.008,9.444 21.008,21.024 0,11.581 -9.412,21.024 -21.008,21.024 -11.614,0 -21.008,-9.443 -21.008,-21.024 0,-11.579 9.394,-21.024 21.008,-21.024 z"
               id="path3654" />
          </g>
          <g
             id="g3660" />
          <g
             id="g3664" />
          <g
             id="g3672">
            <path
               style="fill:#3bafda"
               d="m 73.304,319.708 c 11.596,0 21.008,9.393 21.008,20.99 0,11.614 -9.412,21.007 -21.008,21.007 -11.614,0 -21.008,-9.394 -21.008,-21.007 0,-11.597 9.394,-20.99 21.008,-20.99 z"
               id="path3670" />
          </g>
          <g
             id="g3676">
            <path
               style="fill:#3bafda"
               d="m 73.304,266.42 c 11.596,0 21.008,9.427 21.008,21.007 0,11.596 -9.412,21.024 -21.008,21.024 -11.614,0 -21.008,-9.428 -21.008,-21.024 0,-11.579 9.394,-21.007 21.008,-21.007 z"
               id="path3674" />
          </g>
          <g
             id="g3680">
            <path
               style="fill:#3bafda"
               d="m 73.304,213.115 c 11.596,0 21.008,9.427 21.008,21.025 0,11.579 -9.412,21.007 -21.008,21.007 -11.614,0 -21.008,-9.428 -21.008,-21.007 0,-11.598 9.394,-21.025 21.008,-21.025 z"
               id="path3678" />
          </g>
          <g
             id="g3684">
            <path
               style="fill:#3bafda"
               d="m 73.304,159.862 c 11.596,0 21.008,9.393 21.008,20.973 0,11.614 -9.412,21.025 -21.008,21.025 -11.614,0 -21.008,-9.412 -21.008,-21.025 0,-11.58 9.394,-20.973 21.008,-20.973 z"
               id="path3682" />
          </g>
          <g
             id="g3688">
            <path
               style="fill:#3bafda"
               d="m 125.584,745.988 c 11.613,0 21.024,9.395 21.024,20.974 0,11.63 -9.411,21.024 -21.024,21.024 -11.597,0 -20.991,-9.395 -20.991,-21.024 0,-11.579 9.394,-20.974 20.991,-20.974 z"
               id="path3686" />
          </g>
          <g
             id="g3692">
            <path
               style="fill:#3bafda"
               d="m 125.584,692.685 c 11.613,0 21.024,9.428 21.024,21.024 0,11.581 -9.411,21.007 -21.024,21.007 -11.597,0 -20.991,-9.426 -20.991,-21.007 0,-11.597 9.394,-21.024 20.991,-21.024 z"
               id="path3690" />
          </g>
          <g
             id="g3700">
            <path
               style="fill:#3bafda"
               d="m 125.584,586.128 c 11.613,0 21.024,9.393 21.024,21.024 0,11.579 -9.411,20.973 -21.024,20.973 -11.597,0 -20.991,-9.393 -20.991,-20.973 0,-11.631 9.394,-21.024 20.991,-21.024 z"
               id="path3698" />
          </g>
          <g
             id="g3704" />
          <g
             id="g3708">
            <path
               style="fill:#3bafda"
               d="m 125.584,479.569 c 11.613,0 21.024,9.393 21.024,20.973 0,11.632 -9.411,21.024 -21.024,21.024 -11.597,0 -20.991,-9.393 -20.991,-21.024 0,-11.579 9.394,-20.973 20.991,-20.973 z"
               id="path3706" />
          </g>
          <g
             id="g3712">
            <path
               style="fill:#3bafda"
               d="m 125.584,426.265 c 11.613,0 21.024,9.411 21.024,21.024 0,11.58 -9.411,20.974 -21.024,20.974 -11.597,0 -20.991,-9.393 -20.991,-20.974 0,-11.613 9.394,-21.024 20.991,-21.024 z"
               id="path3710" />
          </g>
          <g
             id="g3716">
            <path
               style="fill:#3bafda"
               d="m 125.584,372.978 c 11.613,0 21.024,9.393 21.024,21.007 0,11.597 -9.411,21.024 -21.024,21.024 -11.597,0 -20.991,-9.427 -20.991,-21.024 0,-11.614 9.394,-21.007 20.991,-21.007 z"
               id="path3714" />
          </g>
          <g
             id="g3720">
            <path
               style="fill:#3bafda"
               d="m 125.584,319.708 c 11.613,0 21.024,9.393 21.024,20.99 0,11.614 -9.411,21.007 -21.024,21.007 -11.597,0 -20.991,-9.394 -20.991,-21.007 0,-11.597 9.394,-20.99 20.991,-20.99 z"
               id="path3718" />
          </g>
          <g
             id="g3724" />
          <g
             id="g3728">
            <path
               style="fill:#3bafda"
               d="m 177.88,692.685 c 11.614,0 21.008,9.428 21.008,21.024 0,11.581 -9.394,21.007 -21.008,21.007 -11.596,0 -20.991,-9.426 -20.991,-21.007 10e-4,-11.597 9.395,-21.024 20.991,-21.024 z"
               id="path3726" />
          </g>
          <g
             id="g3732">
            <path
               style="fill:#3bafda"
               d="m 177.88,639.396 c 11.614,0 21.008,9.429 21.008,21.008 0,11.579 -9.394,21.024 -21.008,21.024 -11.596,0 -20.991,-9.445 -20.991,-21.024 0,-11.579 9.395,-21.008 20.991,-21.008 z"
               id="path3730" />
          </g>
          <g
             id="g3736">
            <path
               style="fill:#3bafda"
               d="m 177.88,586.128 c 11.614,0 21.008,9.393 21.008,21.024 0,11.579 -9.394,20.973 -21.008,20.973 -11.596,0 -20.991,-9.393 -20.991,-20.973 10e-4,-11.631 9.395,-21.024 20.991,-21.024 z"
               id="path3734" />
          </g>
          <g
             id="g3740">
            <path
               style="fill:#3bafda"
               d="m 177.88,532.822 c 11.614,0 21.008,9.444 21.008,21.024 0,11.581 -9.394,21.024 -21.008,21.024 -11.596,0 -20.991,-9.443 -20.991,-21.024 10e-4,-11.579 9.395,-21.024 20.991,-21.024 z"
               id="path3738" />
          </g>
          <g
             id="g3744">
            <path
               style="fill:#3bafda"
               d="m 177.88,479.569 c 11.614,0 21.008,9.393 21.008,20.973 0,11.632 -9.394,21.024 -21.008,21.024 -11.596,0 -20.991,-9.393 -20.991,-21.024 10e-4,-11.579 9.395,-20.973 20.991,-20.973 z"
               id="path3742" />
          </g>
          <g
             id="g3752">
            <path
               style="fill:#3bafda"
               d="m 177.88,372.978 c 11.614,0 21.008,9.393 21.008,21.007 0,11.597 -9.394,21.024 -21.008,21.024 -11.596,0 -20.991,-9.427 -20.991,-21.024 10e-4,-11.614 9.395,-21.007 20.991,-21.007 z"
               id="path3750" />
          </g>
          <g
             id="g3756">
            <path
               style="fill:#3bafda"
               d="m 177.88,319.708 c 11.614,0 21.008,9.393 21.008,20.99 0,11.614 -9.394,21.007 -21.008,21.007 -11.596,0 -20.991,-9.394 -20.991,-21.007 10e-4,-11.597 9.395,-20.99 20.991,-20.99 z"
               id="path3754" />
          </g>
          <g
             id="g3760">
            <path
               style="fill:#3bafda"
               d="m 177.88,266.42 c 11.614,0 21.008,9.427 21.008,21.007 0,11.596 -9.394,21.024 -21.008,21.024 -11.596,0 -20.991,-9.428 -20.991,-21.024 10e-4,-11.579 9.395,-21.007 20.991,-21.007 z"
               id="path3758" />
          </g>
          <g
             id="g3768">
            <path
               style="fill:#3bafda"
               d="m 230.177,745.988 c 11.597,0 21.024,9.395 21.024,20.974 0,11.63 -9.428,21.024 -21.024,21.024 -11.596,0 -21.024,-9.395 -21.024,-21.024 0,-11.579 9.428,-20.974 21.024,-20.974 z"
               id="path3766" />
          </g>
          <g
             id="g3772">
            <path
               style="fill:#3bafda"
               d="m 230.177,692.685 c 11.597,0 21.024,9.428 21.024,21.024 0,11.581 -9.428,21.007 -21.024,21.007 -11.596,0 -21.024,-9.426 -21.024,-21.007 0,-11.597 9.428,-21.024 21.024,-21.024 z"
               id="path3770" />
          </g>
          <g
             id="g3780">
            <path
               style="fill:#3bafda"
               d="m 230.177,586.128 c 11.597,0 21.024,9.393 21.024,21.024 0,11.579 -9.428,20.973 -21.024,20.973 -11.596,0 -21.024,-9.393 -21.024,-20.973 0,-11.631 9.428,-21.024 21.024,-21.024 z"
               id="path3778" />
          </g>
          <g
             id="g3784">
            <path
               style="fill:#3bafda"
               d="m 230.177,532.822 c 11.597,0 21.024,9.444 21.024,21.024 0,11.581 -9.428,21.024 -21.024,21.024 -11.596,0 -21.024,-9.443 -21.024,-21.024 0,-11.579 9.428,-21.024 21.024,-21.024 z"
               id="path3782" />
          </g>
          <g
             id="g3792">
            <path
               style="fill:#3bafda"
               d="m 230.177,426.265 c 11.597,0 21.024,9.411 21.024,21.024 0,11.58 -9.428,20.974 -21.024,20.974 -11.596,0 -21.024,-9.393 -21.024,-20.974 0,-11.613 9.428,-21.024 21.024,-21.024 z"
               id="path3790" />
          </g>
          <g
             id="g3796">
            <path
               style="fill:#3bafda"
               d="m 230.177,372.978 c 11.597,0 21.024,9.393 21.024,21.007 0,11.597 -9.428,21.024 -21.024,21.024 -11.596,0 -21.024,-9.427 -21.024,-21.024 0,-11.614 9.428,-21.007 21.024,-21.007 z"
               id="path3794" />
          </g>
          <g
             id="g3804">
            <path
               style="fill:#3bafda"
               d="m 230.177,266.42 c 11.597,0 21.024,9.427 21.024,21.007 0,11.596 -9.428,21.024 -21.024,21.024 -11.596,0 -21.024,-9.428 -21.024,-21.024 0,-11.579 9.428,-21.007 21.024,-21.007 z"
               id="path3802" />
          </g>
          <g
             id="g3812">
            <path
               style="fill:#3bafda"
               d="m 230.177,159.862 c 11.597,0 21.024,9.393 21.024,20.973 0,11.614 -9.428,21.025 -21.024,21.025 -11.596,0 -21.024,-9.412 -21.024,-21.025 0,-11.58 9.428,-20.973 21.024,-20.973 z"
               id="path3810" />
          </g>
          <g
             id="g3820">
            <path
               style="fill:#3bafda"
               d="m 282.474,692.685 c 11.597,0 20.991,9.428 20.991,21.024 0,11.581 -9.393,21.007 -20.991,21.007 -11.596,0 -21.008,-9.426 -21.008,-21.007 0,-11.597 9.411,-21.024 21.008,-21.024 z"
               id="path3818" />
          </g>
          <g
             id="g3824">
            <path
               style="fill:#3bafda"
               d="m 282.474,639.396 c 11.597,0 20.991,9.429 20.991,21.008 0,11.579 -9.393,21.024 -20.991,21.024 -11.596,0 -21.008,-9.445 -21.008,-21.024 0,-11.579 9.411,-21.008 21.008,-21.008 z"
               id="path3822" />
          </g>
          <g
             id="g3828">
            <path
               style="fill:#3bafda"
               d="m 282.474,586.128 c 11.597,0 20.991,9.393 20.991,21.024 0,11.579 -9.393,20.973 -20.991,20.973 -11.596,0 -21.008,-9.393 -21.008,-20.973 0,-11.631 9.411,-21.024 21.008,-21.024 z"
               id="path3826" />
          </g>
          <g
             id="g3836">
            <path
               style="fill:#3bafda"
               d="m 282.474,479.569 c 11.597,0 20.991,9.393 20.991,20.973 0,11.632 -9.393,21.024 -20.991,21.024 -11.596,0 -21.008,-9.393 -21.008,-21.024 0,-11.579 9.411,-20.973 21.008,-20.973 z"
               id="path3834" />
          </g>
          <g
             id="g3840">
            <path
               style="fill:#3bafda"
               d="m 282.474,426.265 c 11.597,0 20.991,9.411 20.991,21.024 0,11.58 -9.393,20.974 -20.991,20.974 -11.596,0 -21.008,-9.393 -21.008,-20.974 0,-11.613 9.411,-21.024 21.008,-21.024 z"
               id="path3838" />
          </g>
          <g
             id="g3848" />
          <g
             id="g3852">
            <path
               style="fill:#3bafda"
               d="m 334.77,692.685 c 11.581,0 20.991,9.428 20.991,21.024 0,11.581 -9.41,21.007 -20.991,21.007 -11.63,0 -21.024,-9.426 -21.024,-21.007 0,-11.597 9.394,-21.024 21.024,-21.024 z"
               id="path3850" />
          </g>
          <g
             id="g3856">
            <path
               style="fill:#3bafda"
               d="m 334.77,639.396 c 11.581,0 20.991,9.429 20.991,21.008 0,11.579 -9.41,21.024 -20.991,21.024 -11.63,0 -21.024,-9.445 -21.024,-21.024 0,-11.579 9.394,-21.008 21.024,-21.008 z"
               id="path3854" />
          </g>
          <g
             id="g3864">
            <path
               style="fill:#3bafda"
               d="m 334.77,532.822 c 11.581,0 20.991,9.444 20.991,21.024 0,11.581 -9.41,21.024 -20.991,21.024 -11.63,0 -21.024,-9.443 -21.024,-21.024 0,-11.579 9.394,-21.024 21.024,-21.024 z"
               id="path3862" />
          </g>
          <g
             id="g3868">
            <path
               style="fill:#3bafda"
               d="m 387.033,745.988 c 11.615,0 21.024,9.395 21.024,20.974 0,11.63 -9.41,21.024 -21.024,21.024 -11.597,0 -20.991,-9.395 -20.991,-21.024 0,-11.579 9.394,-20.974 20.991,-20.974 z"
               id="path3866" />
          </g>
          <g
             id="g3872" />
          <g
             id="g3876" />
          <g
             id="g3880">
            <path
               style="fill:#3bafda"
               d="m 387.033,586.128 c 11.615,0 21.024,9.393 21.024,21.024 0,11.579 -9.41,20.973 -21.024,20.973 -11.597,0 -20.991,-9.393 -20.991,-20.973 0,-11.631 9.394,-21.024 20.991,-21.024 z"
               id="path3878" />
          </g>
          <g
             id="g3884">
            <path
               style="fill:#3bafda"
               d="m 387.033,532.822 c 11.615,0 21.024,9.444 21.024,21.024 0,11.581 -9.41,21.024 -21.024,21.024 -11.597,0 -20.991,-9.443 -20.991,-21.024 0,-11.579 9.394,-21.024 20.991,-21.024 z"
               id="path3882" />
          </g>
          <g
             id="g3892">
            <path
               style="fill:#3bafda"
               d="m 387.033,426.265 c 11.615,0 21.024,9.411 21.024,21.024 0,11.58 -9.41,20.974 -21.024,20.974 -11.597,0 -20.991,-9.393 -20.991,-20.974 0,-11.613 9.394,-21.024 20.991,-21.024 z"
               id="path3890" />
          </g>
          <g
             id="g3896">
            <path
               style="fill:#3bafda"
               d="m 387.033,372.978 c 11.615,0 21.024,9.393 21.024,21.007 0,11.597 -9.41,21.024 -21.024,21.024 -11.597,0 -20.991,-9.427 -20.991,-21.024 0,-11.614 9.394,-21.007 20.991,-21.007 z"
               id="path3894" />
          </g>
          <g
             id="g3900" />
          <g
             id="g3904">
            <path
               style="fill:#3bafda"
               d="m 387.033,266.42 c 11.615,0 21.024,9.427 21.024,21.007 0,11.596 -9.41,21.024 -21.024,21.024 -11.597,0 -20.991,-9.428 -20.991,-21.024 0,-11.579 9.394,-21.007 20.991,-21.007 z"
               id="path3902" />
          </g>
          <g
             id="g3908">
            <path
               style="fill:#3bafda"
               d="m 387.033,213.115 c 11.615,0 21.024,9.427 21.024,21.025 0,11.579 -9.41,21.007 -21.024,21.007 -11.597,0 -20.991,-9.428 -20.991,-21.007 0,-11.598 9.394,-21.025 20.991,-21.025 z"
               id="path3906" />
          </g>
          <g
             id="g3912">
            <path
               style="fill:#3bafda"
               d="m 387.033,159.862 c 11.615,0 21.024,9.393 21.024,20.973 0,11.614 -9.41,21.025 -21.024,21.025 -11.597,0 -20.991,-9.412 -20.991,-21.025 0,-11.58 9.394,-20.973 20.991,-20.973 z"
               id="path3910" />
          </g>
          <g
             id="g3920">
            <path
               style="fill:#3bafda"
               d="m 387.033,53.254 c 11.615,0 21.024,9.444 21.024,21.024 0,11.579 -9.41,21.024 -21.024,21.024 -11.597,0 -20.991,-9.445 -20.991,-21.024 0,-11.58 9.394,-21.024 20.991,-21.024 z"
               id="path3918" />
          </g>
          <g
             id="g3924">
            <path
               style="fill:#3bafda"
               d="m 439.331,745.988 c 11.613,0 21.023,9.395 21.023,20.974 0,11.63 -9.41,21.024 -21.023,21.024 -11.598,0 -21.008,-9.395 -21.008,-21.024 0,-11.579 9.41,-20.974 21.008,-20.974 z"
               id="path3922" />
          </g>
          <g
             id="g3928">
            <path
               style="fill:#3bafda"
               d="m 439.331,692.685 c 11.613,0 21.023,9.428 21.023,21.024 0,11.581 -9.41,21.007 -21.023,21.007 -11.598,0 -21.008,-9.426 -21.008,-21.007 0,-11.597 9.41,-21.024 21.008,-21.024 z"
               id="path3926" />
          </g>
          <g
             id="g3936">
            <path
               style="fill:#3bafda"
               d="m 439.331,586.128 c 11.613,0 21.023,9.393 21.023,21.024 0,11.579 -9.41,20.973 -21.023,20.973 -11.598,0 -21.008,-9.393 -21.008,-20.973 0,-11.631 9.41,-21.024 21.008,-21.024 z"
               id="path3934" />
          </g>
          <g
             id="g3940" />
          <g
             id="g3944">
            <path
               style="fill:#3bafda"
               d="m 439.331,479.569 c 11.613,0 21.023,9.393 21.023,20.973 0,11.632 -9.41,21.024 -21.023,21.024 -11.598,0 -21.008,-9.393 -21.008,-21.024 0,-11.579 9.41,-20.973 21.008,-20.973 z"
               id="path3942" />
          </g>
          <g
             id="g3948">
            <path
               style="fill:#3bafda"
               d="m 439.331,426.265 c 11.613,0 21.023,9.411 21.023,21.024 0,11.58 -9.41,20.974 -21.023,20.974 -11.598,0 -21.008,-9.393 -21.008,-20.974 0,-11.613 9.41,-21.024 21.008,-21.024 z"
               id="path3946" />
          </g>
          <g
             id="g3952">
            <path
               style="fill:#3bafda"
               d="m 439.331,372.978 c 11.613,0 21.023,9.393 21.023,21.007 0,11.597 -9.41,21.024 -21.023,21.024 -11.598,0 -21.008,-9.427 -21.008,-21.024 0,-11.614 9.41,-21.007 21.008,-21.007 z"
               id="path3950" />
          </g>
          <g
             id="g3960">
            <path
               style="fill:#3bafda"
               d="m 439.331,266.42 c 11.613,0 21.023,9.427 21.023,21.007 0,11.596 -9.41,21.024 -21.023,21.024 -11.598,0 -21.008,-9.428 -21.008,-21.024 0,-11.579 9.41,-21.007 21.008,-21.007 z"
               id="path3958" />
          </g>
          <g
             id="g3964" />
          <g
             id="g3968">
            <path
               style="fill:#3bafda"
               d="m 439.331,159.862 c 11.613,0 21.023,9.393 21.023,20.973 0,11.614 -9.41,21.025 -21.023,21.025 -11.598,0 -21.008,-9.412 -21.008,-21.025 0,-11.58 9.41,-20.973 21.008,-20.973 z"
               id="path3966" />
          </g>
          <g
             id="g3972">
            <path
               style="fill:#3bafda"
               d="m 491.625,745.988 c 11.598,0 21.027,9.395 21.027,20.974 0,11.63 -9.43,21.024 -21.027,21.024 -11.596,0 -21.023,-9.395 -21.023,-21.024 0,-11.579 9.428,-20.974 21.023,-20.974 z"
               id="path3970" />
          </g>
          <g
             id="g3976">
            <path
               style="fill:#3bafda"
               d="m 491.625,692.685 c 11.598,0 21.027,9.428 21.027,21.024 0,11.581 -9.43,21.007 -21.027,21.007 -11.596,0 -21.023,-9.426 -21.023,-21.007 0,-11.597 9.428,-21.024 21.023,-21.024 z"
               id="path3974" />
          </g>
          <g
             id="g3980">
            <path
               style="fill:#3bafda"
               d="m 491.625,639.396 c 11.598,0 21.027,9.429 21.027,21.008 0,11.579 -9.43,21.024 -21.027,21.024 -11.596,0 -21.023,-9.445 -21.023,-21.024 0,-11.579 9.428,-21.008 21.023,-21.008 z"
               id="path3978" />
          </g>
          <g
             id="g3988">
            <path
               style="fill:#3bafda"
               d="m 491.625,532.822 c 11.598,0 21.027,9.444 21.027,21.024 0,11.581 -9.43,21.024 -21.027,21.024 -11.596,0 -21.023,-9.443 -21.023,-21.024 0,-11.579 9.428,-21.024 21.023,-21.024 z"
               id="path3986" />
          </g>
          <g
             id="g3992">
            <path
               style="fill:#3bafda"
               d="m 491.625,479.569 c 11.598,0 21.027,9.393 21.027,20.973 0,11.632 -9.43,21.024 -21.027,21.024 -11.596,0 -21.023,-9.393 -21.023,-21.024 0,-11.579 9.428,-20.973 21.023,-20.973 z"
               id="path3990" />
          </g>
          <g
             id="g3996" />
          <g
             id="g4000">
            <path
               style="fill:#3bafda"
               d="m 491.625,372.978 c 11.598,0 21.027,9.393 21.027,21.007 0,11.597 -9.43,21.024 -21.027,21.024 -11.596,0 -21.023,-9.427 -21.023,-21.024 0,-11.614 9.428,-21.007 21.023,-21.007 z"
               id="path3998" />
          </g>
          <g
             id="g4004">
            <path
               style="fill:#3bafda"
               d="m 491.625,319.708 c 11.598,0 21.027,9.393 21.027,20.99 0,11.614 -9.43,21.007 -21.027,21.007 -11.596,0 -21.023,-9.394 -21.023,-21.007 0,-11.597 9.428,-20.99 21.023,-20.99 z"
               id="path4002" />
          </g>
          <g
             id="g4008">
            <path
               style="fill:#3bafda"
               d="m 491.625,266.42 c 11.598,0 21.027,9.427 21.027,21.007 0,11.596 -9.43,21.024 -21.027,21.024 -11.596,0 -21.023,-9.428 -21.023,-21.024 0,-11.579 9.428,-21.007 21.023,-21.007 z"
               id="path4006" />
          </g>
          <g
             id="g4012" />
          <g
             id="g4016" />
          <g
             id="g4020">
            <path
               style="fill:#3bafda"
               d="m 543.924,639.396 c 11.596,0 20.99,9.429 20.99,21.008 0,11.579 -9.394,21.024 -20.99,21.024 -11.615,0 -21.025,-9.445 -21.025,-21.024 0,-11.579 9.41,-21.008 21.025,-21.008 z"
               id="path4018" />
          </g>
          <g
             id="g4024">
            <path
               style="fill:#3bafda"
               d="m 543.924,586.128 c 11.596,0 20.99,9.393 20.99,21.024 0,11.579 -9.394,20.973 -20.99,20.973 -11.615,0 -21.025,-9.393 -21.025,-20.973 0,-11.631 9.41,-21.024 21.025,-21.024 z"
               id="path4022" />
          </g>
          <g
             id="g4028">
            <path
               style="fill:#3bafda"
               d="m 543.924,532.822 c 11.596,0 20.99,9.444 20.99,21.024 0,11.581 -9.394,21.024 -20.99,21.024 -11.615,0 -21.025,-9.443 -21.025,-21.024 0,-11.579 9.41,-21.024 21.025,-21.024 z"
               id="path4026" />
          </g>
          <g
             id="g4032">
            <path
               style="fill:#3bafda"
               d="m 543.924,479.569 c 11.596,0 20.99,9.393 20.99,20.973 0,11.632 -9.394,21.024 -20.99,21.024 -11.615,0 -21.025,-9.393 -21.025,-21.024 0,-11.579 9.41,-20.973 21.025,-20.973 z"
               id="path4030" />
          </g>
          <g
             id="g4036">
            <path
               style="fill:#3bafda"
               d="m 543.924,426.265 c 11.596,0 20.99,9.411 20.99,21.024 0,11.58 -9.394,20.974 -20.99,20.974 -11.615,0 -21.025,-9.393 -21.025,-20.974 0,-11.613 9.41,-21.024 21.025,-21.024 z"
               id="path4034" />
          </g>
          <g
             id="g4040">
            <path
               style="fill:#3bafda"
               d="m 543.924,372.978 c 11.596,0 20.99,9.393 20.99,21.007 0,11.597 -9.394,21.024 -20.99,21.024 -11.615,0 -21.025,-9.427 -21.025,-21.024 0,-11.614 9.41,-21.007 21.025,-21.007 z"
               id="path4038" />
          </g>
          <g
             id="g4044">
            <path
               style="fill:#3bafda"
               d="m 543.924,319.708 c 11.596,0 20.99,9.393 20.99,20.99 0,11.614 -9.394,21.007 -20.99,21.007 -11.615,0 -21.025,-9.394 -21.025,-21.007 0,-11.597 9.41,-20.99 21.025,-20.99 z"
               id="path4042" />
          </g>
          <g
             id="g4052">
            <path
               style="fill:#3bafda"
               d="m 543.924,213.115 c 11.596,0 20.99,9.427 20.99,21.025 0,11.579 -9.394,21.007 -20.99,21.007 -11.615,0 -21.025,-9.428 -21.025,-21.007 0,-11.598 9.41,-21.025 21.025,-21.025 z"
               id="path4050" />
          </g>
          <g
             id="g4056" />
          <g
             id="g4060" />
          <g
             id="g4064">
            <path
               style="fill:#3bafda"
               d="m 596.221,639.396 c 11.58,0 20.99,9.429 20.99,21.008 0,11.579 -9.41,21.024 -20.99,21.024 -11.631,0 -21.025,-9.445 -21.025,-21.024 0,-11.579 9.394,-21.008 21.025,-21.008 z"
               id="path4062" />
          </g>
          <g
             id="g4068">
            <path
               style="fill:#3bafda"
               d="m 596.221,586.128 c 11.58,0 20.99,9.393 20.99,21.024 0,11.579 -9.41,20.973 -20.99,20.973 -11.631,0 -21.025,-9.393 -21.025,-20.973 0,-11.631 9.394,-21.024 21.025,-21.024 z"
               id="path4066" />
          </g>
          <g
             id="g4072" />
          <g
             id="g4076" />
          <g
             id="g4084" />
          <g
             id="g4088">
            <path
               style="fill:#3bafda"
               d="m 596.221,319.708 c 11.58,0 20.99,9.393 20.99,20.99 0,11.614 -9.41,21.007 -20.99,21.007 -11.631,0 -21.025,-9.394 -21.025,-21.007 0,-11.597 9.394,-20.99 21.025,-20.99 z"
               id="path4086" />
          </g>
          <g
             id="g4092">
            <path
               style="fill:#3bafda"
               d="m 596.221,266.42 c 11.58,0 20.99,9.427 20.99,21.007 0,11.596 -9.41,21.024 -20.99,21.024 -11.631,0 -21.025,-9.428 -21.025,-21.024 0,-11.579 9.394,-21.007 21.025,-21.007 z"
               id="path4090" />
          </g>
          <g
             id="g4096">
            <path
               style="fill:#3bafda"
               d="m 596.221,213.115 c 11.58,0 20.99,9.427 20.99,21.025 0,11.579 -9.41,21.007 -20.99,21.007 -11.631,0 -21.025,-9.428 -21.025,-21.007 0,-11.598 9.394,-21.025 21.025,-21.025 z"
               id="path4094" />
          </g>
          <g
             id="g4100">
            <path
               style="fill:#3bafda"
               d="m 596.221,159.862 c 11.58,0 20.99,9.393 20.99,20.973 0,11.614 -9.41,21.025 -20.99,21.025 -11.631,0 -21.025,-9.412 -21.025,-21.025 0,-11.58 9.394,-20.973 21.025,-20.973 z"
               id="path4098" />
          </g>
          <g
             id="g4104">
            <path
               style="fill:#3bafda"
               d="m 596.221,106.558 c 11.58,0 20.99,9.393 20.99,21.024 0,11.58 -9.41,21.007 -20.99,21.007 -11.631,0 -21.025,-9.428 -21.025,-21.007 0,-11.631 9.394,-21.024 21.025,-21.024 z"
               id="path4102" />
          </g>
          <g
             id="g4108" />
          <g
             id="g4112">
            <path
               style="fill:#3bafda"
               d="m 648.483,692.685 c 11.613,0 21.025,9.428 21.025,21.024 0,11.581 -9.412,21.007 -21.025,21.007 -11.598,0 -20.99,-9.426 -20.99,-21.007 0,-11.597 9.392,-21.024 20.99,-21.024 z"
               id="path4110" />
          </g>
          <g
             id="g4116">
            <path
               style="fill:#3bafda"
               d="m 648.483,639.396 c 11.613,0 21.025,9.429 21.025,21.008 0,11.579 -9.412,21.024 -21.025,21.024 -11.598,0 -20.99,-9.445 -20.99,-21.024 0,-11.579 9.392,-21.008 20.99,-21.008 z"
               id="path4114" />
          </g>
          <g
             id="g4124">
            <path
               style="fill:#3bafda"
               d="m 648.483,532.822 c 11.613,0 21.025,9.444 21.025,21.024 0,11.581 -9.412,21.024 -21.025,21.024 -11.598,0 -20.99,-9.443 -20.99,-21.024 0,-11.579 9.392,-21.024 20.99,-21.024 z"
               id="path4122" />
          </g>
          <g
             id="g4128">
            <path
               style="fill:#3bafda"
               d="m 648.483,479.569 c 11.613,0 21.025,9.393 21.025,20.973 0,11.632 -9.412,21.024 -21.025,21.024 -11.598,0 -20.99,-9.393 -20.99,-21.024 0,-11.579 9.392,-20.973 20.99,-20.973 z"
               id="path4126" />
          </g>
          <g
             id="g4132">
            <path
               style="fill:#3bafda"
               d="m 648.483,426.265 c 11.613,0 21.025,9.411 21.025,21.024 0,11.58 -9.412,20.974 -21.025,20.974 -11.598,0 -20.99,-9.393 -20.99,-20.974 0,-11.613 9.392,-21.024 20.99,-21.024 z"
               id="path4130" />
          </g>
          <g
             id="g4136">
            <path
               style="fill:#3bafda"
               d="m 648.483,372.978 c 11.613,0 21.025,9.393 21.025,21.007 0,11.597 -9.412,21.024 -21.025,21.024 -11.598,0 -20.99,-9.427 -20.99,-21.024 0,-11.614 9.392,-21.007 20.99,-21.007 z"
               id="path4134" />
          </g>
          <g
             id="g4140">
            <path
               style="fill:#3bafda"
               d="m 648.483,319.708 c 11.613,0 21.025,9.393 21.025,20.99 0,11.614 -9.412,21.007 -21.025,21.007 -11.598,0 -20.99,-9.394 -20.99,-21.007 0,-11.597 9.392,-20.99 20.99,-20.99 z"
               id="path4138" />
          </g>
          <g
             id="g4144" />
          <g
             id="g4148" />
          <g
             id="g4152">
            <path
               style="fill:#3bafda"
               d="m 700.78,639.396 c 11.613,0 21.006,9.429 21.006,21.008 0,11.579 -9.393,21.024 -21.006,21.024 -11.598,0 -20.99,-9.445 -20.99,-21.024 0,-11.579 9.392,-21.008 20.99,-21.008 z"
               id="path4150" />
          </g>
          <g
             id="g4156" />
          <g
             id="g4160" />
          <g
             id="g4164">
            <path
               style="fill:#3bafda"
               d="m 700.78,479.569 c 11.613,0 21.006,9.393 21.006,20.973 0,11.632 -9.393,21.024 -21.006,21.024 -11.598,0 -20.99,-9.393 -20.99,-21.024 -10e-4,-11.579 9.392,-20.973 20.99,-20.973 z"
               id="path4162" />
          </g>
          <g
             id="g4172">
            <path
               style="fill:#3bafda"
               d="m 700.78,372.978 c 11.613,0 21.006,9.393 21.006,21.007 0,11.597 -9.393,21.024 -21.006,21.024 -11.598,0 -20.99,-9.427 -20.99,-21.024 -10e-4,-11.614 9.392,-21.007 20.99,-21.007 z"
               id="path4170" />
          </g>
          <g
             id="g4176" />
          <g
             id="g4180">
            <path
               style="fill:#3bafda"
               d="m 753.077,692.685 c 11.58,0 21.006,9.428 21.006,21.024 0,11.581 -9.426,21.007 -21.006,21.007 -11.598,0 -21.023,-9.426 -21.023,-21.007 -10e-4,-11.597 9.425,-21.024 21.023,-21.024 z"
               id="path4178" />
          </g>
          <g
             id="g4184" />
          <g
             id="g4188">
            <path
               style="fill:#3bafda"
               d="m 753.077,586.128 c 11.58,0 21.006,9.393 21.006,21.024 0,11.579 -9.426,20.973 -21.006,20.973 -11.598,0 -21.023,-9.393 -21.023,-20.973 -10e-4,-11.631 9.425,-21.024 21.023,-21.024 z"
               id="path4186" />
          </g>
          <g
             id="g4192" />
          <g
             id="g4196">
            <path
               style="fill:#3bafda"
               d="m 753.077,479.569 c 11.58,0 21.006,9.393 21.006,20.973 0,11.632 -9.426,21.024 -21.006,21.024 -11.598,0 -21.023,-9.393 -21.023,-21.024 -10e-4,-11.579 9.425,-20.973 21.023,-20.973 z"
               id="path4194" />
          </g>
          <g
             id="g4200">
            <path
               style="fill:#3bafda"
               d="m 753.077,426.265 c 11.58,0 21.006,9.411 21.006,21.024 0,11.58 -9.426,20.974 -21.006,20.974 -11.598,0 -21.023,-9.393 -21.023,-20.974 -10e-4,-11.613 9.425,-21.024 21.023,-21.024 z"
               id="path4198" />
          </g>
          <g
             id="g4204">
            <path
               style="fill:#3bafda"
               d="m 753.077,372.978 c 11.58,0 21.006,9.393 21.006,21.007 0,11.597 -9.426,21.024 -21.006,21.024 -11.598,0 -21.023,-9.427 -21.023,-21.024 -10e-4,-11.614 9.425,-21.007 21.023,-21.007 z"
               id="path4202" />
          </g>
          <g
             id="g4208">
            <path
               style="fill:#3bafda"
               d="m 753.077,319.708 c 11.58,0 21.006,9.393 21.006,20.99 0,11.614 -9.426,21.007 -21.006,21.007 -11.598,0 -21.023,-9.394 -21.023,-21.007 -10e-4,-11.597 9.425,-20.99 21.023,-20.99 z"
               id="path4206" />
          </g>
          <g
             id="g4212" />
          <g
             id="g4220">
            <path
               style="fill:#3bafda"
               d="m 805.373,692.685 c 11.596,0 20.99,9.428 20.99,21.024 0,11.581 -9.395,21.007 -20.99,21.007 -11.615,0 -21.025,-9.426 -21.025,-21.007 0,-11.597 9.41,-21.024 21.025,-21.024 z"
               id="path4218" />
          </g>
          <g
             id="g4224">
            <path
               style="fill:#3bafda"
               d="m 805.373,639.396 c 11.596,0 20.99,9.429 20.99,21.008 0,11.579 -9.395,21.024 -20.99,21.024 -11.615,0 -21.025,-9.445 -21.025,-21.024 0,-11.579 9.41,-21.008 21.025,-21.008 z"
               id="path4222" />
          </g>
          <g
             id="g4228" />
          <g
             id="g4232">
            <path
               style="fill:#3bafda"
               d="m 805.373,532.822 c 11.596,0 20.99,9.444 20.99,21.024 0,11.581 -9.395,21.024 -20.99,21.024 -11.615,0 -21.025,-9.443 -21.025,-21.024 0,-11.579 9.41,-21.024 21.025,-21.024 z"
               id="path4230" />
          </g>
          <g
             id="g4236" />
          <g
             id="g4240">
            <path
               style="fill:#3bafda"
               d="m 805.373,426.265 c 11.596,0 20.99,9.411 20.99,21.024 0,11.58 -9.395,20.974 -20.99,20.974 -11.615,0 -21.025,-9.393 -21.025,-20.974 0,-11.613 9.41,-21.024 21.025,-21.024 z"
               id="path4238" />
          </g>
          <g
             id="g4248">
            <path
               style="fill:#3bafda"
               d="m 805.373,319.708 c 11.596,0 20.99,9.393 20.99,20.99 0,11.614 -9.395,21.007 -20.99,21.007 -11.615,0 -21.025,-9.394 -21.025,-21.007 0,-11.597 9.41,-20.99 21.025,-20.99 z"
               id="path4246" />
          </g>
          <g
             id="g4252">
            <path
               style="fill:#3bafda"
               d="m 805.373,266.42 c 11.596,0 20.99,9.427 20.99,21.007 0,11.596 -9.395,21.024 -20.99,21.024 -11.615,0 -21.025,-9.428 -21.025,-21.024 0,-11.579 9.41,-21.007 21.025,-21.007 z"
               id="path4250" />
          </g>
          <g
             id="g4256">
            <path
               style="fill:#3bafda"
               d="m 805.373,213.115 c 11.596,0 20.99,9.427 20.99,21.025 0,11.579 -9.395,21.007 -20.99,21.007 -11.615,0 -21.025,-9.428 -21.025,-21.007 0,-11.598 9.41,-21.025 21.025,-21.025 z"
               id="path4254" />
          </g>
        </g>
        <g
           id="g4540">
          <g
             id="g4266">
            <path
               style="fill:#ffce54"
               d="m 73.304,106.558 c 11.596,0 21.008,9.393 21.008,21.024 0,11.58 -9.412,21.007 -21.008,21.007 -11.614,0 -21.008,-9.428 -21.008,-21.007 0,-11.631 9.394,-21.024 21.008,-21.024 z"
               id="path4264" />
          </g>
          <g
             id="g4270">
            <path
               style="fill:#ffce54"
               d="m 73.304,53.254 c 11.596,0 21.008,9.444 21.008,21.024 0,11.579 -9.412,21.024 -21.008,21.024 -11.614,0 -21.008,-9.445 -21.008,-21.024 0,-11.58 9.394,-21.024 21.008,-21.024 z"
               id="path4268" />
          </g>
          <g
             id="g4274">
            <path
               style="fill:#ffce54"
               d="M 73.304,0 C 84.9,0 94.312,9.394 94.312,20.974 94.312,32.604 84.9,41.999 73.304,41.999 61.69,41.999 52.296,32.604 52.296,20.974 52.296,9.394 61.69,0 73.304,0 Z"
               id="path4272" />
          </g>
          <g
             id="g4278">
            <path
               style="fill:#ffce54"
               d="m 125.584,266.42 c 11.613,0 21.024,9.427 21.024,21.007 0,11.596 -9.411,21.024 -21.024,21.024 -11.597,0 -20.991,-9.428 -20.991,-21.024 0,-11.579 9.394,-21.007 20.991,-21.007 z"
               id="path4276" />
          </g>
          <g
             id="g4286">
            <path
               style="fill:#ffce54"
               d="m 125.584,159.862 c 11.613,0 21.024,9.393 21.024,20.973 0,11.614 -9.411,21.025 -21.024,21.025 -11.597,0 -20.991,-9.412 -20.991,-21.025 0,-11.58 9.394,-20.973 20.991,-20.973 z"
               id="path4284" />
          </g>
          <g
             id="g4290">
            <path
               style="fill:#ffce54"
               d="m 125.584,106.558 c 11.613,0 21.024,9.393 21.024,21.024 0,11.58 -9.411,21.007 -21.024,21.007 -11.597,0 -20.991,-9.428 -20.991,-21.007 0,-11.631 9.394,-21.024 20.991,-21.024 z"
               id="path4288" />
          </g>
          <g
             id="g4298" />
          <g
             id="g4302">
            <path
               style="fill:#ffce54"
               d="m 177.88,159.862 c 11.614,0 21.008,9.393 21.008,20.973 0,11.614 -9.394,21.025 -21.008,21.025 -11.596,0 -20.991,-9.412 -20.991,-21.025 10e-4,-11.58 9.395,-20.973 20.991,-20.973 z"
               id="path4300" />
          </g>
          <g
             id="g4306">
            <path
               style="fill:#ffce54"
               d="m 177.88,106.558 c 11.614,0 21.008,9.393 21.008,21.024 0,11.58 -9.394,21.007 -21.008,21.007 -11.596,0 -20.991,-9.428 -20.991,-21.007 10e-4,-11.631 9.395,-21.024 20.991,-21.024 z"
               id="path4304" />
          </g>
          <g
             id="g4310">
            <path
               style="fill:#ffce54"
               d="m 177.88,53.254 c 11.614,0 21.008,9.444 21.008,21.024 0,11.579 -9.394,21.024 -21.008,21.024 -11.596,0 -20.991,-9.445 -20.991,-21.024 10e-4,-11.58 9.395,-21.024 20.991,-21.024 z"
               id="path4308" />
          </g>
          <g
             id="g4314">
            <path
               style="fill:#ffce54"
               d="m 177.88,0 c 11.614,0 21.008,9.394 21.008,20.974 0,11.63 -9.394,21.025 -21.008,21.025 -11.596,0 -20.991,-9.395 -20.991,-21.025 C 156.89,9.394 166.284,0 177.88,0 Z"
               id="path4312" />
          </g>
          <g
             id="g4318">
            <path
               style="fill:#ffce54"
               d="m 230.177,106.558 c 11.597,0 21.024,9.393 21.024,21.024 0,11.58 -9.428,21.007 -21.024,21.007 -11.596,0 -21.024,-9.428 -21.024,-21.007 0,-11.631 9.428,-21.024 21.024,-21.024 z"
               id="path4316" />
          </g>
          <g
             id="g4326" />
          <g
             id="g4330" />
          <g
             id="g4334">
            <path
               style="fill:#ffce54"
               d="m 282.474,266.42 c 11.597,0 20.991,9.427 20.991,21.007 0,11.596 -9.393,21.024 -20.991,21.024 -11.596,0 -21.008,-9.428 -21.008,-21.024 0,-11.579 9.411,-21.007 21.008,-21.007 z"
               id="path4332" />
          </g>
          <g
             id="g4338" />
          <g
             id="g4342">
            <path
               style="fill:#ffce54"
               d="m 282.474,159.862 c 11.597,0 20.991,9.393 20.991,20.973 0,11.614 -9.393,21.025 -20.991,21.025 -11.596,0 -21.008,-9.412 -21.008,-21.025 0,-11.58 9.411,-20.973 21.008,-20.973 z"
               id="path4340" />
          </g>
          <g
             id="g4350">
            <path
               style="fill:#ffce54"
               d="m 282.474,53.254 c 11.597,0 20.991,9.444 20.991,21.024 0,11.579 -9.393,21.024 -20.991,21.024 -11.596,0 -21.008,-9.445 -21.008,-21.024 0,-11.58 9.411,-21.024 21.008,-21.024 z"
               id="path4348" />
          </g>
          <g
             id="g4354">
            <path
               style="fill:#ffce54"
               d="m 282.474,0 c 11.597,0 20.991,9.394 20.991,20.974 0,11.63 -9.393,21.025 -20.991,21.025 -11.596,0 -21.008,-9.395 -21.008,-21.025 C 261.466,9.394 270.877,0 282.474,0 Z"
               id="path4352" />
          </g>
          <g
             id="g4358">
            <path
               style="fill:#ffce54"
               d="m 334.77,479.569 c 11.581,0 20.991,9.393 20.991,20.973 0,11.632 -9.41,21.024 -20.991,21.024 -11.63,0 -21.024,-9.393 -21.024,-21.024 0,-11.579 9.394,-20.973 21.024,-20.973 z"
               id="path4356" />
          </g>
          <g
             id="g4362">
            <path
               style="fill:#ffce54"
               d="m 334.77,426.265 c 11.581,0 20.991,9.411 20.991,21.024 0,11.58 -9.41,20.974 -20.991,20.974 -11.63,0 -21.024,-9.393 -21.024,-20.974 0,-11.613 9.394,-21.024 21.024,-21.024 z"
               id="path4360" />
          </g>
          <g
             id="g4366" />
          <g
             id="g4370">
            <path
               style="fill:#ffce54"
               d="m 334.77,319.708 c 11.581,0 20.991,9.393 20.991,20.99 0,11.614 -9.41,21.007 -20.991,21.007 -11.63,0 -21.024,-9.394 -21.024,-21.007 0,-11.597 9.394,-20.99 21.024,-20.99 z"
               id="path4368" />
          </g>
          <g
             id="g4378" />
          <g
             id="g4382" />
          <g
             id="g4386">
            <path
               style="fill:#ffce54"
               d="m 334.77,106.558 c 11.581,0 20.991,9.393 20.991,21.024 0,11.58 -9.41,21.007 -20.991,21.007 -11.63,0 -21.024,-9.428 -21.024,-21.007 0,-11.631 9.394,-21.024 21.024,-21.024 z"
               id="path4384" />
          </g>
          <g
             id="g4390">
            <path
               style="fill:#ffce54"
               d="m 334.77,53.254 c 11.581,0 20.991,9.444 20.991,21.024 0,11.579 -9.41,21.024 -20.991,21.024 -11.63,0 -21.024,-9.445 -21.024,-21.024 0,-11.58 9.394,-21.024 21.024,-21.024 z"
               id="path4388" />
          </g>
          <g
             id="g4394" />
          <g
             id="g4398">
            <path
               style="fill:#ffce54"
               d="m 387.033,0 c 11.615,0 21.024,9.394 21.024,20.974 0,11.63 -9.41,21.025 -21.024,21.025 -11.597,0 -20.991,-9.395 -20.991,-21.025 C 366.042,9.394 375.436,0 387.033,0 Z"
               id="path4396" />
          </g>
          <g
             id="g4406">
            <path
               style="fill:#ffce54"
               d="m 439.331,53.254 c 11.613,0 21.023,9.444 21.023,21.024 0,11.579 -9.41,21.024 -21.023,21.024 -11.598,0 -21.008,-9.445 -21.008,-21.024 0,-11.58 9.41,-21.024 21.008,-21.024 z"
               id="path4404" />
          </g>
          <g
             id="g4410">
            <path
               style="fill:#ffce54"
               d="m 439.331,0 c 11.613,0 21.023,9.394 21.023,20.974 0,11.63 -9.41,21.025 -21.023,21.025 -11.598,0 -21.008,-9.395 -21.008,-21.025 C 418.323,9.394 427.733,0 439.331,0 Z"
               id="path4408" />
          </g>
          <g
             id="g4414">
            <path
               style="fill:#ffce54"
               d="m 491.625,213.115 c 11.598,0 21.027,9.427 21.027,21.025 0,11.579 -9.43,21.007 -21.027,21.007 -11.596,0 -21.023,-9.428 -21.023,-21.007 0,-11.598 9.428,-21.025 21.023,-21.025 z"
               id="path4412" />
          </g>
          <g
             id="g4418">
            <path
               style="fill:#ffce54"
               d="m 491.625,159.862 c 11.598,0 21.027,9.393 21.027,20.973 0,11.614 -9.43,21.025 -21.027,21.025 -11.596,0 -21.023,-9.412 -21.023,-21.025 0,-11.58 9.428,-20.973 21.023,-20.973 z"
               id="path4416" />
          </g>
          <g
             id="g4422">
            <path
               style="fill:#ffce54"
               d="m 491.625,106.558 c 11.598,0 21.027,9.393 21.027,21.024 0,11.58 -9.43,21.007 -21.027,21.007 -11.596,0 -21.023,-9.428 -21.023,-21.007 0,-11.631 9.428,-21.024 21.023,-21.024 z"
               id="path4420" />
          </g>
          <g
             id="g4426" />
          <g
             id="g4430" />
          <g
             id="g4434">
            <path
               style="fill:#ffce54"
               d="m 543.924,159.862 c 11.596,0 20.99,9.393 20.99,20.973 0,11.614 -9.394,21.025 -20.99,21.025 -11.615,0 -21.025,-9.412 -21.025,-21.025 0,-11.58 9.41,-20.973 21.025,-20.973 z"
               id="path4432" />
          </g>
          <g
             id="g4438">
            <path
               style="fill:#ffce54"
               d="m 543.924,106.558 c 11.596,0 20.99,9.393 20.99,21.024 0,11.58 -9.394,21.007 -20.99,21.007 -11.615,0 -21.025,-9.428 -21.025,-21.007 0,-11.631 9.41,-21.024 21.025,-21.024 z"
               id="path4436" />
          </g>
          <g
             id="g4442">
            <path
               style="fill:#ffce54"
               d="m 543.924,53.254 c 11.596,0 20.99,9.444 20.99,21.024 0,11.579 -9.394,21.024 -20.99,21.024 -11.615,0 -21.025,-9.445 -21.025,-21.024 0,-11.58 9.41,-21.024 21.025,-21.024 z"
               id="path4440" />
          </g>
          <g
             id="g4446">
            <path
               style="fill:#ffce54"
               d="m 543.924,0 c 11.596,0 20.99,9.394 20.99,20.974 0,11.63 -9.394,21.025 -20.99,21.025 -11.615,0 -21.025,-9.395 -21.025,-21.025 C 522.899,9.394 532.309,0 543.924,0 Z"
               id="path4444" />
          </g>
          <g
             id="g4450">
            <path
               style="fill:#ffce54"
               d="m 596.221,53.254 c 11.58,0 20.99,9.444 20.99,21.024 0,11.579 -9.41,21.024 -20.99,21.024 -11.631,0 -21.025,-9.445 -21.025,-21.024 0,-11.58 9.394,-21.024 21.025,-21.024 z"
               id="path4448" />
          </g>
          <g
             id="g4454" />
          <g
             id="g4458">
            <path
               style="fill:#ffce54"
               d="m 648.483,266.42 c 11.613,0 21.025,9.427 21.025,21.007 0,11.596 -9.412,21.024 -21.025,21.024 -11.598,0 -20.99,-9.428 -20.99,-21.024 0,-11.579 9.392,-21.007 20.99,-21.007 z"
               id="path4456" />
          </g>
          <g
             id="g4462">
            <path
               style="fill:#ffce54"
               d="m 648.483,213.115 c 11.613,0 21.025,9.427 21.025,21.025 0,11.579 -9.412,21.007 -21.025,21.007 -11.598,0 -20.99,-9.428 -20.99,-21.007 0,-11.598 9.392,-21.025 20.99,-21.025 z"
               id="path4460" />
          </g>
          <g
             id="g4466" />
          <g
             id="g4470">
            <path
               style="fill:#ffce54"
               d="m 648.483,106.558 c 11.613,0 21.025,9.393 21.025,21.024 0,11.58 -9.412,21.007 -21.025,21.007 -11.598,0 -20.99,-9.428 -20.99,-21.007 0,-11.631 9.392,-21.024 20.99,-21.024 z"
               id="path4468" />
          </g>
          <g
             id="g4474">
            <path
               style="fill:#ffce54"
               d="m 648.483,53.254 c 11.613,0 21.025,9.444 21.025,21.024 0,11.579 -9.412,21.024 -21.025,21.024 -11.598,0 -20.99,-9.445 -20.99,-21.024 0,-11.58 9.392,-21.024 20.99,-21.024 z"
               id="path4472" />
          </g>
          <g
             id="g4478">
            <path
               style="fill:#ffce54"
               d="m 648.483,0 c 11.613,0 21.025,9.394 21.025,20.974 0,11.63 -9.412,21.025 -21.025,21.025 -11.598,0 -20.99,-9.395 -20.99,-21.025 C 627.493,9.394 636.885,0 648.483,0 Z"
               id="path4476" />
          </g>
          <g
             id="g4482">
            <path
               style="fill:#ffce54"
               d="m 700.78,319.708 c 11.613,0 21.006,9.393 21.006,20.99 0,11.614 -9.393,21.007 -21.006,21.007 -11.598,0 -20.99,-9.394 -20.99,-21.007 -10e-4,-11.597 9.392,-20.99 20.99,-20.99 z"
               id="path4480" />
          </g>
          <g
             id="g4486" />
          <g
             id="g4490">
            <path
               style="fill:#ffce54"
               d="m 700.78,213.115 c 11.613,0 21.006,9.427 21.006,21.025 0,11.579 -9.393,21.007 -21.006,21.007 -11.598,0 -20.99,-9.428 -20.99,-21.007 -10e-4,-11.598 9.392,-21.025 20.99,-21.025 z"
               id="path4488" />
          </g>
          <g
             id="g4494">
            <path
               style="fill:#ffce54"
               d="m 700.78,159.862 c 11.613,0 21.006,9.393 21.006,20.973 0,11.614 -9.393,21.025 -21.006,21.025 -11.598,0 -20.99,-9.412 -20.99,-21.025 -10e-4,-11.58 9.392,-20.973 20.99,-20.973 z"
               id="path4492" />
          </g>
          <g
             id="g4498">
            <path
               style="fill:#ffce54"
               d="m 700.78,106.558 c 11.613,0 21.006,9.393 21.006,21.024 0,11.58 -9.393,21.007 -21.006,21.007 -11.598,0 -20.99,-9.428 -20.99,-21.007 -10e-4,-11.631 9.392,-21.024 20.99,-21.024 z"
               id="path4496" />
          </g>
          <g
             id="g4502" />
          <g
             id="g4506" />
          <g
             id="g4510" />
          <g
             id="g4514">
            <path
               style="fill:#ffce54"
               d="m 753.077,159.862 c 11.58,0 21.006,9.393 21.006,20.973 0,11.614 -9.426,21.025 -21.006,21.025 -11.598,0 -21.023,-9.412 -21.023,-21.025 -10e-4,-11.58 9.425,-20.973 21.023,-20.973 z"
               id="path4512" />
          </g>
          <g
             id="g4518">
            <path
               style="fill:#ffce54"
               d="m 753.077,106.558 c 11.58,0 21.006,9.393 21.006,21.024 0,11.58 -9.426,21.007 -21.006,21.007 -11.598,0 -21.023,-9.428 -21.023,-21.007 -10e-4,-11.631 9.425,-21.024 21.023,-21.024 z"
               id="path4516" />
          </g>
          <g
             id="g4522" />
          <g
             id="g4526">
            <path
               style="fill:#ffce54"
               d="m 753.077,0 c 11.58,0 21.006,9.394 21.006,20.974 0,11.63 -9.426,21.025 -21.006,21.025 -11.598,0 -21.023,-9.395 -21.023,-21.025 C 732.053,9.394 741.479,0 753.077,0 Z"
               id="path4524" />
          </g>
          <g
             id="g4530">
            <path
               style="fill:#ffce54"
               d="m 805.373,106.558 c 11.596,0 20.99,9.393 20.99,21.024 0,11.58 -9.395,21.007 -20.99,21.007 -11.615,0 -21.025,-9.428 -21.025,-21.007 0,-11.631 9.41,-21.024 21.025,-21.024 z"
               id="path4528" />
          </g>
          <g
             id="g4534" />
          <g
             id="g4538">
            <path
               style="fill:#ffce54"
               d="m 805.373,0 c 11.596,0 20.99,9.394 20.99,20.974 0,11.63 -9.395,21.025 -20.99,21.025 -11.615,0 -21.025,-9.395 -21.025,-21.025 C 784.348,9.394 793.758,0 805.373,0 Z"
               id="path4536" />
          </g>
        </g>
      </g>
      <g
         id="Layer_1-0" />
    </g>
  </g>
</svg>
